<svg xmlns="http://www.w3.org/2000/svg" width="1024" height="1024" viewBox="0 0 1024 1024">
<defs><radialGradient id="felt" cx="50%" cy="36%" r="82%">
<stop offset="0" stop-color="#174a38"/><stop offset=".52" stop-color="#0c2a22"/><stop offset="1" stop-color="#061410"/>
</radialGradient></defs>
<rect width="1024" height="1024" fill="url(#felt)"/><rect x="182.00" y="182.00" width="44.24" height="44.24" rx="7.08" fill="#e0544f" stroke="#e8c66a" stroke-opacity="0" stroke-width="1.6"/><rect x="233.31" y="182.00" width="44.24" height="44.24" rx="7.08" fill="#e0544f" stroke="#e8c66a" stroke-opacity="0" stroke-width="1.6"/><rect x="284.63" y="182.00" width="44.24" height="44.24" rx="7.08" fill="#e0544f" stroke="#e8c66a" stroke-opacity="0" stroke-width="1.6"/><rect x="335.94" y="182.00" width="44.24" height="44.24" rx="7.08" fill="#e0544f" stroke="#e8c66a" stroke-opacity="0" stroke-width="1.6"/><rect x="387.25" y="182.00" width="44.24" height="44.24" rx="7.08" fill="#e0544f" stroke="#e8c66a" stroke-opacity="0" stroke-width="1.6"/><rect x="438.57" y="182.00" width="44.24" height="44.24" rx="7.08" fill="#e0544f" stroke="#e8c66a" stroke-opacity="0" stroke-width="1.6"/><rect x="489.88" y="182.00" width="44.24" height="44.24" rx="7.08" fill="#e0544f" stroke="#e8c66a" stroke-opacity="0" stroke-width="1.6"/><rect x="541.20" y="182.00" width="44.24" height="44.24" rx="7.08" fill="#e0544f" stroke="#e8c66a" stroke-opacity="0" stroke-width="1.6"/><rect x="592.51" y="182.00" width="44.24" height="44.24" rx="7.08" fill="#e0544f" stroke="#e8c66a" stroke-opacity="0" stroke-width="1.6"/><rect x="643.82" y="182.00" width="44.24" height="44.24" rx="7.08" fill="#e0544f" stroke="#e8c66a" stroke-opacity="0" stroke-width="1.6"/><rect x="695.14" y="182.00" width="44.24" height="44.24" rx="7.08" fill="#e0544f" stroke="#e8c66a" stroke-opacity="0" stroke-width="1.6"/><rect x="746.45" y="182.00" width="44.24" height="44.24" rx="7.08" fill="#e0544f" stroke="#e8c66a" stroke-opacity="0" stroke-width="1.6"/><rect x="797.76" y="182.00" width="44.24" height="44.24" rx="7.08" fill="#e0544f" stroke="#e8c66a" stroke-opacity="0" stroke-width="1.6"/><rect x="182.00" y="233.31" width="44.24" height="44.24" rx="7.08" fill="#e0544f" stroke="#e8c66a" stroke-opacity="0" stroke-width="1.6"/><rect x="233.31" y="233.31" width="44.24" height="44.24" rx="7.08" fill="#e0544f" stroke="#e8c66a" stroke-opacity="0" stroke-width="1.6"/><rect x="284.63" y="233.31" width="44.24" height="44.24" rx="7.08" fill="#e0544f" stroke="#e8c66a" stroke-opacity="0" stroke-width="1.6"/><rect x="335.94" y="233.31" width="44.24" height="44.24" rx="7.08" fill="#e0544f" stroke="#e8c66a" stroke-opacity="0" stroke-width="1.6"/><rect x="387.25" y="233.31" width="44.24" height="44.24" rx="7.08" fill="#e0544f" stroke="#e8c66a" stroke-opacity="0" stroke-width="1.6"/><rect x="438.57" y="233.31" width="44.24" height="44.24" rx="7.08" fill="#34a06b" stroke="#e8c66a" stroke-opacity="0" stroke-width="1.6"/><rect x="489.88" y="233.31" width="44.24" height="44.24" rx="7.08" fill="#34a06b" stroke="#e8c66a" stroke-opacity="0" stroke-width="1.6"/><rect x="541.20" y="233.31" width="44.24" height="44.24" rx="7.08" fill="#34a06b" stroke="#e8c66a" stroke-opacity="0" stroke-width="1.6"/><rect x="592.51" y="233.31" width="44.24" height="44.24" rx="7.08" fill="#0d241b" stroke="#e8c66a" stroke-opacity="0.16" stroke-width="1.6"/><rect x="643.82" y="233.31" width="44.24" height="44.24" rx="7.08" fill="#0d241b" stroke="#e8c66a" stroke-opacity="0.16" stroke-width="1.6"/><rect x="695.14" y="233.31" width="44.24" height="44.24" rx="7.08" fill="#0d241b" stroke="#e8c66a" stroke-opacity="0.16" stroke-width="1.6"/><rect x="746.45" y="233.31" width="44.24" height="44.24" rx="7.08" fill="#0d241b" stroke="#e8c66a" stroke-opacity="0.16" stroke-width="1.6"/><rect x="797.76" y="233.31" width="44.24" height="44.24" rx="7.08" fill="#0d241b" stroke="#e8c66a" stroke-opacity="0.16" stroke-width="1.6"/><rect x="182.00" y="284.63" width="44.24" height="44.24" rx="7.08" fill="#e0544f" stroke="#e8c66a" stroke-opacity="0" stroke-width="1.6"/><rect x="233.31" y="284.63" width="44.24" height="44.24" rx="7.08" fill="#34a06b" stroke="#e8c66a" stroke-opacity="0" stroke-width="1.6"/><rect x="284.63" y="284.63" width="44.24" height="44.24" rx="7.08" fill="#e0544f" stroke="#e8c66a" stroke-opacity="0" stroke-width="1.6"/><rect x="335.94" y="284.63" width="44.24" height="44.24" rx="7.08" fill="#e0544f" stroke="#e8c66a" stroke-opacity="0" stroke-width="1.6"/><rect x="387.25" y="284.63" width="44.24" height="44.24" rx="7.08" fill="#e0544f" stroke="#e8c66a" stroke-opacity="0" stroke-width="1.6"/><rect x="438.57" y="284.63" width="44.24" height="44.24" rx="7.08" fill="#34a06b" stroke="#e8c66a" stroke-opacity="0" stroke-width="1.6"/><rect x="489.88" y="284.63" width="44.24" height="44.24" rx="7.08" fill="#34a06b" stroke="#e8c66a" stroke-opacity="0" stroke-width="1.6"/><rect x="541.20" y="284.63" width="44.24" height="44.24" rx="7.08" fill="#34a06b" stroke="#e8c66a" stroke-opacity="0" stroke-width="1.6"/><rect x="592.51" y="284.63" width="44.24" height="44.24" rx="7.08" fill="#0d241b" stroke="#e8c66a" stroke-opacity="0.16" stroke-width="1.6"/><rect x="643.82" y="284.63" width="44.24" height="44.24" rx="7.08" fill="#0d241b" stroke="#e8c66a" stroke-opacity="0.16" stroke-width="1.6"/><rect x="695.14" y="284.63" width="44.24" height="44.24" rx="7.08" fill="#0d241b" stroke="#e8c66a" stroke-opacity="0.16" stroke-width="1.6"/><rect x="746.45" y="284.63" width="44.24" height="44.24" rx="7.08" fill="#0d241b" stroke="#e8c66a" stroke-opacity="0.16" stroke-width="1.6"/><rect x="797.76" y="284.63" width="44.24" height="44.24" rx="7.08" fill="#0d241b" stroke="#e8c66a" stroke-opacity="0.16" stroke-width="1.6"/><rect x="182.00" y="335.94" width="44.24" height="44.24" rx="7.08" fill="#e0544f" stroke="#e8c66a" stroke-opacity="0" stroke-width="1.6"/><rect x="233.31" y="335.94" width="44.24" height="44.24" rx="7.08" fill="#34a06b" stroke="#e8c66a" stroke-opacity="0" stroke-width="1.6"/><rect x="284.63" y="335.94" width="44.24" height="44.24" rx="7.08" fill="#34a06b" stroke="#e8c66a" stroke-opacity="0" stroke-width="1.6"/><rect x="335.94" y="335.94" width="44.24" height="44.24" rx="7.08" fill="#e0544f" stroke="#e8c66a" stroke-opacity="0" stroke-width="1.6"/><rect x="387.25" y="335.94" width="44.24" height="44.24" rx="7.08" fill="#e0544f" stroke="#e8c66a" stroke-opacity="0" stroke-width="1.6"/><rect x="438.57" y="335.94" width="44.24" height="44.24" rx="7.08" fill="#34a06b" stroke="#e8c66a" stroke-opacity="0" stroke-width="1.6"/><rect x="489.88" y="335.94" width="44.24" height="44.24" rx="7.08" fill="#34a06b" stroke="#e8c66a" stroke-opacity="0" stroke-width="1.6"/><rect x="541.20" y="335.94" width="44.24" height="44.24" rx="7.08" fill="#34a06b" stroke="#e8c66a" stroke-opacity="0" stroke-width="1.6"/><rect x="592.51" y="335.94" width="44.24" height="44.24" rx="7.08" fill="#0d241b" stroke="#e8c66a" stroke-opacity="0.16" stroke-width="1.6"/><rect x="643.82" y="335.94" width="44.24" height="44.24" rx="7.08" fill="#0d241b" stroke="#e8c66a" stroke-opacity="0.16" stroke-width="1.6"/><rect x="695.14" y="335.94" width="44.24" height="44.24" rx="7.08" fill="#0d241b" stroke="#e8c66a" stroke-opacity="0.16" stroke-width="1.6"/><rect x="746.45" y="335.94" width="44.24" height="44.24" rx="7.08" fill="#0d241b" stroke="#e8c66a" stroke-opacity="0.16" stroke-width="1.6"/><rect x="797.76" y="335.94" width="44.24" height="44.24" rx="7.08" fill="#0d241b" stroke="#e8c66a" stroke-opacity="0.16" stroke-width="1.6"/><rect x="182.00" y="387.25" width="44.24" height="44.24" rx="7.08" fill="#e0544f" stroke="#e8c66a" stroke-opacity="0" stroke-width="1.6"/><rect x="233.31" y="387.25" width="44.24" height="44.24" rx="7.08" fill="#34a06b" stroke="#e8c66a" stroke-opacity="0" stroke-width="1.6"/><rect x="284.63" y="387.25" width="44.24" height="44.24" rx="7.08" fill="#34a06b" stroke="#e8c66a" stroke-opacity="0" stroke-width="1.6"/><rect x="335.94" y="387.25" width="44.24" height="44.24" rx="7.08" fill="#34a06b" stroke="#e8c66a" stroke-opacity="0" stroke-width="1.6"/><rect x="387.25" y="387.25" width="44.24" height="44.24" rx="7.08" fill="#e0544f" stroke="#e8c66a" stroke-opacity="0" stroke-width="1.6"/><rect x="438.57" y="387.25" width="44.24" height="44.24" rx="7.08" fill="#34a06b" stroke="#e8c66a" stroke-opacity="0" stroke-width="1.6"/><rect x="489.88" y="387.25" width="44.24" height="44.24" rx="7.08" fill="#34a06b" stroke="#e8c66a" stroke-opacity="0" stroke-width="1.6"/><rect x="541.20" y="387.25" width="44.24" height="44.24" rx="7.08" fill="#34a06b" stroke="#e8c66a" stroke-opacity="0" stroke-width="1.6"/><rect x="592.51" y="387.25" width="44.24" height="44.24" rx="7.08" fill="#34a06b" stroke="#e8c66a" stroke-opacity="0" stroke-width="1.6"/><rect x="643.82" y="387.25" width="44.24" height="44.24" rx="7.08" fill="#0d241b" stroke="#e8c66a" stroke-opacity="0.16" stroke-width="1.6"/><rect x="695.14" y="387.25" width="44.24" height="44.24" rx="7.08" fill="#0d241b" stroke="#e8c66a" stroke-opacity="0.16" stroke-width="1.6"/><rect x="746.45" y="387.25" width="44.24" height="44.24" rx="7.08" fill="#0d241b" stroke="#e8c66a" stroke-opacity="0.16" stroke-width="1.6"/><rect x="797.76" y="387.25" width="44.24" height="44.24" rx="7.08" fill="#0d241b" stroke="#e8c66a" stroke-opacity="0.16" stroke-width="1.6"/><rect x="182.00" y="438.57" width="44.24" height="44.24" rx="7.08" fill="#34a06b" stroke="#e8c66a" stroke-opacity="0" stroke-width="1.6"/><rect x="233.31" y="438.57" width="44.24" height="44.24" rx="7.08" fill="#34a06b" stroke="#e8c66a" stroke-opacity="0" stroke-width="1.6"/><rect x="284.63" y="438.57" width="44.24" height="44.24" rx="7.08" fill="#34a06b" stroke="#e8c66a" stroke-opacity="0" stroke-width="1.6"/><rect x="335.94" y="438.57" width="44.24" height="44.24" rx="7.08" fill="#34a06b" stroke="#e8c66a" stroke-opacity="0" stroke-width="1.6"/><rect x="387.25" y="438.57" width="44.24" height="44.24" rx="7.08" fill="#0d241b" stroke="#e8c66a" stroke-opacity="0.16" stroke-width="1.6"/><rect x="438.57" y="438.57" width="44.24" height="44.24" rx="7.08" fill="#e0544f" stroke="#e8c66a" stroke-opacity="0" stroke-width="1.6"/><rect x="489.88" y="438.57" width="44.24" height="44.24" rx="7.08" fill="#34a06b" stroke="#e8c66a" stroke-opacity="0" stroke-width="1.6"/><rect x="541.20" y="438.57" width="44.24" height="44.24" rx="7.08" fill="#34a06b" stroke="#e8c66a" stroke-opacity="0" stroke-width="1.6"/><rect x="592.51" y="438.57" width="44.24" height="44.24" rx="7.08" fill="#34a06b" stroke="#e8c66a" stroke-opacity="0" stroke-width="1.6"/><rect x="643.82" y="438.57" width="44.24" height="44.24" rx="7.08" fill="#34a06b" stroke="#e8c66a" stroke-opacity="0" stroke-width="1.6"/><rect x="695.14" y="438.57" width="44.24" height="44.24" rx="7.08" fill="#0d241b" stroke="#e8c66a" stroke-opacity="0.16" stroke-width="1.6"/><rect x="746.45" y="438.57" width="44.24" height="44.24" rx="7.08" fill="#0d241b" stroke="#e8c66a" stroke-opacity="0.16" stroke-width="1.6"/><rect x="797.76" y="438.57" width="44.24" height="44.24" rx="7.08" fill="#0d241b" stroke="#e8c66a" stroke-opacity="0.16" stroke-width="1.6"/><rect x="182.00" y="489.88" width="44.24" height="44.24" rx="7.08" fill="#34a06b" stroke="#e8c66a" stroke-opacity="0" stroke-width="1.6"/><rect x="233.31" y="489.88" width="44.24" height="44.24" rx="7.08" fill="#34a06b" stroke="#e8c66a" stroke-opacity="0" stroke-width="1.6"/><rect x="284.63" y="489.88" width="44.24" height="44.24" rx="7.08" fill="#34a06b" stroke="#e8c66a" stroke-opacity="0" stroke-width="1.6"/><rect x="335.94" y="489.88" width="44.24" height="44.24" rx="7.08" fill="#34a06b" stroke="#e8c66a" stroke-opacity="0" stroke-width="1.6"/><rect x="387.25" y="489.88" width="44.24" height="44.24" rx="7.08" fill="#0d241b" stroke="#e8c66a" stroke-opacity="0.16" stroke-width="1.6"/><rect x="438.57" y="489.88" width="44.24" height="44.24" rx="7.08" fill="#0d241b" stroke="#e8c66a" stroke-opacity="0.16" stroke-width="1.6"/><rect x="489.88" y="489.88" width="44.24" height="44.24" rx="7.08" fill="#e0544f" stroke="#e8c66a" stroke-opacity="0" stroke-width="1.6"/><rect x="541.20" y="489.88" width="44.24" height="44.24" rx="7.08" fill="#34a06b" stroke="#e8c66a" stroke-opacity="0" stroke-width="1.6"/><rect x="592.51" y="489.88" width="44.24" height="44.24" rx="7.08" fill="#34a06b" stroke="#e8c66a" stroke-opacity="0" stroke-width="1.6"/><rect x="643.82" y="489.88" width="44.24" height="44.24" rx="7.08" fill="#34a06b" stroke="#e8c66a" stroke-opacity="0" stroke-width="1.6"/><rect x="695.14" y="489.88" width="44.24" height="44.24" rx="7.08" fill="#34a06b" stroke="#e8c66a" stroke-opacity="0" stroke-width="1.6"/><rect x="746.45" y="489.88" width="44.24" height="44.24" rx="7.08" fill="#0d241b" stroke="#e8c66a" stroke-opacity="0.16" stroke-width="1.6"/><rect x="797.76" y="489.88" width="44.24" height="44.24" rx="7.08" fill="#0d241b" stroke="#e8c66a" stroke-opacity="0.16" stroke-width="1.6"/><rect x="182.00" y="541.20" width="44.24" height="44.24" rx="7.08" fill="#34a06b" stroke="#e8c66a" stroke-opacity="0" stroke-width="1.6"/><rect x="233.31" y="541.20" width="44.24" height="44.24" rx="7.08" fill="#34a06b" stroke="#e8c66a" stroke-opacity="0" stroke-width="1.6"/><rect x="284.63" y="541.20" width="44.24" height="44.24" rx="7.08" fill="#34a06b" stroke="#e8c66a" stroke-opacity="0" stroke-width="1.6"/><rect x="335.94" y="541.20" width="44.24" height="44.24" rx="7.08" fill="#34a06b" stroke="#e8c66a" stroke-opacity="0" stroke-width="1.6"/><rect x="387.25" y="541.20" width="44.24" height="44.24" rx="7.08" fill="#0d241b" stroke="#e8c66a" stroke-opacity="0.16" stroke-width="1.6"/><rect x="438.57" y="541.20" width="44.24" height="44.24" rx="7.08" fill="#0d241b" stroke="#e8c66a" stroke-opacity="0.16" stroke-width="1.6"/><rect x="489.88" y="541.20" width="44.24" height="44.24" rx="7.08" fill="#0d241b" stroke="#e8c66a" stroke-opacity="0.16" stroke-width="1.6"/><rect x="541.20" y="541.20" width="44.24" height="44.24" rx="7.08" fill="#34a06b" stroke="#e8c66a" stroke-opacity="0" stroke-width="1.6"/><rect x="592.51" y="541.20" width="44.24" height="44.24" rx="7.08" fill="#34a06b" stroke="#e8c66a" stroke-opacity="0" stroke-width="1.6"/><rect x="643.82" y="541.20" width="44.24" height="44.24" rx="7.08" fill="#34a06b" stroke="#e8c66a" stroke-opacity="0" stroke-width="1.6"/><rect x="695.14" y="541.20" width="44.24" height="44.24" rx="7.08" fill="#34a06b" stroke="#e8c66a" stroke-opacity="0" stroke-width="1.6"/><rect x="746.45" y="541.20" width="44.24" height="44.24" rx="7.08" fill="#34a06b" stroke="#e8c66a" stroke-opacity="0" stroke-width="1.6"/><rect x="797.76" y="541.20" width="44.24" height="44.24" rx="7.08" fill="#0d241b" stroke="#e8c66a" stroke-opacity="0.16" stroke-width="1.6"/><rect x="182.00" y="592.51" width="44.24" height="44.24" rx="7.08" fill="#34a06b" stroke="#e8c66a" stroke-opacity="0" stroke-width="1.6"/><rect x="233.31" y="592.51" width="44.24" height="44.24" rx="7.08" fill="#34a06b" stroke="#e8c66a" stroke-opacity="0" stroke-width="1.6"/><rect x="284.63" y="592.51" width="44.24" height="44.24" rx="7.08" fill="#34a06b" stroke="#e8c66a" stroke-opacity="0" stroke-width="1.6"/><rect x="335.94" y="592.51" width="44.24" height="44.24" rx="7.08" fill="#34a06b" stroke="#e8c66a" stroke-opacity="0" stroke-width="1.6"/><rect x="387.25" y="592.51" width="44.24" height="44.24" rx="7.08" fill="#0d241b" stroke="#e8c66a" stroke-opacity="0.16" stroke-width="1.6"/><rect x="438.57" y="592.51" width="44.24" height="44.24" rx="7.08" fill="#0d241b" stroke="#e8c66a" stroke-opacity="0.16" stroke-width="1.6"/><rect x="489.88" y="592.51" width="44.24" height="44.24" rx="7.08" fill="#0d241b" stroke="#e8c66a" stroke-opacity="0.16" stroke-width="1.6"/><rect x="541.20" y="592.51" width="44.24" height="44.24" rx="7.08" fill="#0d241b" stroke="#e8c66a" stroke-opacity="0.16" stroke-width="1.6"/><rect x="592.51" y="592.51" width="44.24" height="44.24" rx="7.08" fill="#34a06b" stroke="#e8c66a" stroke-opacity="0" stroke-width="1.6"/><rect x="643.82" y="592.51" width="44.24" height="44.24" rx="7.08" fill="#34a06b" stroke="#e8c66a" stroke-opacity="0" stroke-width="1.6"/><rect x="695.14" y="592.51" width="44.24" height="44.24" rx="7.08" fill="#34a06b" stroke="#e8c66a" stroke-opacity="0" stroke-width="1.6"/><rect x="746.45" y="592.51" width="44.24" height="44.24" rx="7.08" fill="#34a06b" stroke="#e8c66a" stroke-opacity="0" stroke-width="1.6"/><rect x="797.76" y="592.51" width="44.24" height="44.24" rx="7.08" fill="#34a06b" stroke="#e8c66a" stroke-opacity="0" stroke-width="1.6"/><rect x="182.00" y="643.82" width="44.24" height="44.24" rx="7.08" fill="#0d241b" stroke="#e8c66a" stroke-opacity="0.16" stroke-width="1.6"/><rect x="233.31" y="643.82" width="44.24" height="44.24" rx="7.08" fill="#0d241b" stroke="#e8c66a" stroke-opacity="0.16" stroke-width="1.6"/><rect x="284.63" y="643.82" width="44.24" height="44.24" rx="7.08" fill="#0d241b" stroke="#e8c66a" stroke-opacity="0.16" stroke-width="1.6"/><rect x="335.94" y="643.82" width="44.24" height="44.24" rx="7.08" fill="#0d241b" stroke="#e8c66a" stroke-opacity="0.16" stroke-width="1.6"/><rect x="387.25" y="643.82" width="44.24" height="44.24" rx="7.08" fill="#0d241b" stroke="#e8c66a" stroke-opacity="0.16" stroke-width="1.6"/><rect x="438.57" y="643.82" width="44.24" height="44.24" rx="7.08" fill="#0d241b" stroke="#e8c66a" stroke-opacity="0.16" stroke-width="1.6"/><rect x="489.88" y="643.82" width="44.24" height="44.24" rx="7.08" fill="#0d241b" stroke="#e8c66a" stroke-opacity="0.16" stroke-width="1.6"/><rect x="541.20" y="643.82" width="44.24" height="44.24" rx="7.08" fill="#0d241b" stroke="#e8c66a" stroke-opacity="0.16" stroke-width="1.6"/><rect x="592.51" y="643.82" width="44.24" height="44.24" rx="7.08" fill="#0d241b" stroke="#e8c66a" stroke-opacity="0.16" stroke-width="1.6"/><rect x="643.82" y="643.82" width="44.24" height="44.24" rx="7.08" fill="#34a06b" stroke="#e8c66a" stroke-opacity="0" stroke-width="1.6"/><rect x="695.14" y="643.82" width="44.24" height="44.24" rx="7.08" fill="#34a06b" stroke="#e8c66a" stroke-opacity="0" stroke-width="1.6"/><rect x="746.45" y="643.82" width="44.24" height="44.24" rx="7.08" fill="#34a06b" stroke="#e8c66a" stroke-opacity="0" stroke-width="1.6"/><rect x="797.76" y="643.82" width="44.24" height="44.24" rx="7.08" fill="#34a06b" stroke="#e8c66a" stroke-opacity="0" stroke-width="1.6"/><rect x="182.00" y="695.14" width="44.24" height="44.24" rx="7.08" fill="#0d241b" stroke="#e8c66a" stroke-opacity="0.16" stroke-width="1.6"/><rect x="233.31" y="695.14" width="44.24" height="44.24" rx="7.08" fill="#0d241b" stroke="#e8c66a" stroke-opacity="0.16" stroke-width="1.6"/><rect x="284.63" y="695.14" width="44.24" height="44.24" rx="7.08" fill="#0d241b" stroke="#e8c66a" stroke-opacity="0.16" stroke-width="1.6"/><rect x="335.94" y="695.14" width="44.24" height="44.24" rx="7.08" fill="#0d241b" stroke="#e8c66a" stroke-opacity="0.16" stroke-width="1.6"/><rect x="387.25" y="695.14" width="44.24" height="44.24" rx="7.08" fill="#0d241b" stroke="#e8c66a" stroke-opacity="0.16" stroke-width="1.6"/><rect x="438.57" y="695.14" width="44.24" height="44.24" rx="7.08" fill="#0d241b" stroke="#e8c66a" stroke-opacity="0.16" stroke-width="1.6"/><rect x="489.88" y="695.14" width="44.24" height="44.24" rx="7.08" fill="#0d241b" stroke="#e8c66a" stroke-opacity="0.16" stroke-width="1.6"/><rect x="541.20" y="695.14" width="44.24" height="44.24" rx="7.08" fill="#0d241b" stroke="#e8c66a" stroke-opacity="0.16" stroke-width="1.6"/><rect x="592.51" y="695.14" width="44.24" height="44.24" rx="7.08" fill="#0d241b" stroke="#e8c66a" stroke-opacity="0.16" stroke-width="1.6"/><rect x="643.82" y="695.14" width="44.24" height="44.24" rx="7.08" fill="#0d241b" stroke="#e8c66a" stroke-opacity="0.16" stroke-width="1.6"/><rect x="695.14" y="695.14" width="44.24" height="44.24" rx="7.08" fill="#34a06b" stroke="#e8c66a" stroke-opacity="0" stroke-width="1.6"/><rect x="746.45" y="695.14" width="44.24" height="44.24" rx="7.08" fill="#0d241b" stroke="#e8c66a" stroke-opacity="0.16" stroke-width="1.6"/><rect x="797.76" y="695.14" width="44.24" height="44.24" rx="7.08" fill="#0d241b" stroke="#e8c66a" stroke-opacity="0.16" stroke-width="1.6"/><rect x="182.00" y="746.45" width="44.24" height="44.24" rx="7.08" fill="#0d241b" stroke="#e8c66a" stroke-opacity="0.16" stroke-width="1.6"/><rect x="233.31" y="746.45" width="44.24" height="44.24" rx="7.08" fill="#0d241b" stroke="#e8c66a" stroke-opacity="0.16" stroke-width="1.6"/><rect x="284.63" y="746.45" width="44.24" height="44.24" rx="7.08" fill="#0d241b" stroke="#e8c66a" stroke-opacity="0.16" stroke-width="1.6"/><rect x="335.94" y="746.45" width="44.24" height="44.24" rx="7.08" fill="#0d241b" stroke="#e8c66a" stroke-opacity="0.16" stroke-width="1.6"/><rect x="387.25" y="746.45" width="44.24" height="44.24" rx="7.08" fill="#0d241b" stroke="#e8c66a" stroke-opacity="0.16" stroke-width="1.6"/><rect x="438.57" y="746.45" width="44.24" height="44.24" rx="7.08" fill="#0d241b" stroke="#e8c66a" stroke-opacity="0.16" stroke-width="1.6"/><rect x="489.88" y="746.45" width="44.24" height="44.24" rx="7.08" fill="#0d241b" stroke="#e8c66a" stroke-opacity="0.16" stroke-width="1.6"/><rect x="541.20" y="746.45" width="44.24" height="44.24" rx="7.08" fill="#0d241b" stroke="#e8c66a" stroke-opacity="0.16" stroke-width="1.6"/><rect x="592.51" y="746.45" width="44.24" height="44.24" rx="7.08" fill="#0d241b" stroke="#e8c66a" stroke-opacity="0.16" stroke-width="1.6"/><rect x="643.82" y="746.45" width="44.24" height="44.24" rx="7.08" fill="#0d241b" stroke="#e8c66a" stroke-opacity="0.16" stroke-width="1.6"/><rect x="695.14" y="746.45" width="44.24" height="44.24" rx="7.08" fill="#0d241b" stroke="#e8c66a" stroke-opacity="0.16" stroke-width="1.6"/><rect x="746.45" y="746.45" width="44.24" height="44.24" rx="7.08" fill="#34a06b" stroke="#e8c66a" stroke-opacity="0" stroke-width="1.6"/><rect x="797.76" y="746.45" width="44.24" height="44.24" rx="7.08" fill="#0d241b" stroke="#e8c66a" stroke-opacity="0.16" stroke-width="1.6"/><rect x="182.00" y="797.76" width="44.24" height="44.24" rx="7.08" fill="#0d241b" stroke="#e8c66a" stroke-opacity="0.16" stroke-width="1.6"/><rect x="233.31" y="797.76" width="44.24" height="44.24" rx="7.08" fill="#0d241b" stroke="#e8c66a" stroke-opacity="0.16" stroke-width="1.6"/><rect x="284.63" y="797.76" width="44.24" height="44.24" rx="7.08" fill="#0d241b" stroke="#e8c66a" stroke-opacity="0.16" stroke-width="1.6"/><rect x="335.94" y="797.76" width="44.24" height="44.24" rx="7.08" fill="#0d241b" stroke="#e8c66a" stroke-opacity="0.16" stroke-width="1.6"/><rect x="387.25" y="797.76" width="44.24" height="44.24" rx="7.08" fill="#0d241b" stroke="#e8c66a" stroke-opacity="0.16" stroke-width="1.6"/><rect x="438.57" y="797.76" width="44.24" height="44.24" rx="7.08" fill="#0d241b" stroke="#e8c66a" stroke-opacity="0.16" stroke-width="1.6"/><rect x="489.88" y="797.76" width="44.24" height="44.24" rx="7.08" fill="#0d241b" stroke="#e8c66a" stroke-opacity="0.16" stroke-width="1.6"/><rect x="541.20" y="797.76" width="44.24" height="44.24" rx="7.08" fill="#0d241b" stroke="#e8c66a" stroke-opacity="0.16" stroke-width="1.6"/><rect x="592.51" y="797.76" width="44.24" height="44.24" rx="7.08" fill="#0d241b" stroke="#e8c66a" stroke-opacity="0.16" stroke-width="1.6"/><rect x="643.82" y="797.76" width="44.24" height="44.24" rx="7.08" fill="#0d241b" stroke="#e8c66a" stroke-opacity="0.16" stroke-width="1.6"/><rect x="695.14" y="797.76" width="44.24" height="44.24" rx="7.08" fill="#0d241b" stroke="#e8c66a" stroke-opacity="0.16" stroke-width="1.6"/><rect x="746.45" y="797.76" width="44.24" height="44.24" rx="7.08" fill="#0d241b" stroke="#e8c66a" stroke-opacity="0.16" stroke-width="1.6"/><rect x="797.76" y="797.76" width="44.24" height="44.24" rx="7.08" fill="#34a06b" stroke="#e8c66a" stroke-opacity="0" stroke-width="1.6"/></svg>